<svg xmlns="http://www.w3.org/2000/svg" version="1.1" xmlns:xlink="http://www.w3.org/1999/xlink" xmlns:svgjs="http://svgjs.com/svgjs" width="1440" height="560" preserveAspectRatio="none" viewBox="0 0 1440 560"><g mask="url(&quot;#SvgjsMask1063&quot;)" fill="none"><rect width="1440" height="560" x="0" y="0" fill="rgba(226, 125, 96, 1)"></rect><path d="M 0,138 C 96,120 288,39 480,48 C 672,57 768,184.4 960,183 C 1152,181.6 1344,69.4 1440,41L1440 560L0 560z" fill="rgba(65, 179, 163, 1)"></path><path d="M 0,199 C 57.6,216.2 172.8,284.8 288,285 C 403.2,285.2 460.8,198.6 576,200 C 691.2,201.4 748.8,284.6 864,292 C 979.2,299.4 1036.8,229.2 1152,237 C 1267.2,244.8 1382.4,312.2 1440,331L1440 560L0 560z" fill="rgba(232, 168, 124, 1)"></path><path d="M 0,512 C 72,501.8 216,464.2 360,461 C 504,457.8 576,511.6 720,496 C 864,480.4 936,388.2 1080,383 C 1224,377.8 1368,452.6 1440,470L1440 560L0 560z" fill="rgba(133, 205, 203, 1)"></path></g><defs><mask id="SvgjsMask1063"><rect width="1440" height="560" fill="#ffffff"></rect></mask></defs></svg>